<svg xmlns="http://www.w3.org/2000/svg" viewBox="0 0 800 600" role="img" aria-labelledby="title desc">
  <title id="title">Баттер-слайм Звездная пыль</title>
  <desc id="desc">Авторская SVG-иллюстрация розово-желтого баттер-слайма со звездочками.</desc>
  <defs>
    <linearGradient id="bg" x1="0" y1="0" x2="800" y2="600" gradientUnits="userSpaceOnUse">
      <stop stop-color="#fff5fb"/>
      <stop offset=".55" stop-color="#f5fdff"/>
      <stop offset="1" stop-color="#fff8be"/>
    </linearGradient>
    <linearGradient id="slime" x1="183" y1="176" x2="650" y2="453" gradientUnits="userSpaceOnUse">
      <stop stop-color="#fff0a5"/>
      <stop offset=".46" stop-color="#ffc0df"/>
      <stop offset="1" stop-color="#ec5aa1"/>
    </linearGradient>
  </defs>
  <rect width="800" height="600" fill="url(#bg)"/>
  <ellipse cx="402" cy="476" rx="286" ry="54" fill="#ec5aa1" opacity=".13"/>
  <path d="M157 371c-4-97 67-168 184-184 117-17 257 19 302 108 35 69-5 139-83 177-77 37-206 43-302 12-65-21-98-60-101-113Z" fill="url(#slime)"/>
  <path d="M229 324c57-51 139-76 240-63 61 8 110 28 149 58" fill="none" stroke="#fff" stroke-width="22" stroke-linecap="round" opacity=".62"/>
  <path d="M292 396c77 28 168 30 250 0" fill="none" stroke="#fff8c7" stroke-width="18" stroke-linecap="round" opacity=".72"/>
  <g fill="#ffe100">
    <path d="M246 166l12 27 29 4-21 20 5 29-25-14-25 14 5-29-21-20 29-4Z"/>
    <path d="M575 173l10 21 23 4-17 16 4 23-20-11-20 11 4-23-17-16 23-4Z"/>
    <path d="M591 378l13 28 31 5-22 21 5 31-27-15-27 15 5-31-22-21 31-5Z"/>
  </g>
  <g fill="#ffffff" opacity=".92">
    <circle cx="351" cy="333" r="11"/>
    <circle cx="451" cy="389" r="9"/>
    <circle cx="514" cy="304" r="10"/>
  </g>
</svg>
