<svg xmlns="http://www.w3.org/2000/svg" viewBox="0 0 1600 900" role="img" aria-labelledby="title desc">
  <title id="title">Иллюстрация творческой студии</title>
  <desc id="desc">Вымышленная яркая студия для детских мастер-классов со столами, полками и цветными материалами.</desc>
  <defs>
    <linearGradient id="wall" x1="0" y1="0" x2="1600" y2="900" gradientUnits="userSpaceOnUse">
      <stop stop-color="#d7f8ff"/>
      <stop offset=".48" stop-color="#fff7d4"/>
      <stop offset="1" stop-color="#ffd7ec"/>
    </linearGradient>
    <linearGradient id="floor" x1="150" y1="640" x2="1450" y2="900" gradientUnits="userSpaceOnUse">
      <stop stop-color="#fbfdff"/>
      <stop offset="1" stop-color="#c8f4ff"/>
    </linearGradient>
    <linearGradient id="table" x1="760" y1="500" x2="1220" y2="730" gradientUnits="userSpaceOnUse">
      <stop stop-color="#ffffff"/>
      <stop offset="1" stop-color="#ffe7f3"/>
    </linearGradient>
    <filter id="softShadow" x="-20%" y="-20%" width="140%" height="160%">
      <feDropShadow dx="0" dy="18" stdDeviation="20" flood-color="#00aeb5" flood-opacity=".18"/>
    </filter>
  </defs>
  <rect width="1600" height="900" fill="url(#wall)"/>
  <path d="M0 647c206-42 393-52 579-18 167 30 336 14 505-18 189-36 361-27 516 25v264H0Z" fill="url(#floor)"/>
  <path d="M0 618c220 38 472 30 692-8 295-50 625-28 908 44" fill="none" stroke="#fff" stroke-width="8" opacity=".7"/>
  <g opacity=".82">
    <circle cx="1340" cy="122" r="72" fill="#ffe100"/>
    <circle cx="1453" cy="207" r="34" fill="#8be600"/>
    <circle cx="1268" cy="246" r="42" fill="#7ddef1"/>
    <circle cx="1514" cy="392" r="84" fill="#ec5aa1" opacity=".68"/>
  </g>
  <g filter="url(#softShadow)">
    <rect x="1034" y="142" width="356" height="206" rx="32" fill="#fff" opacity=".86"/>
    <rect x="1072" y="184" width="104" height="48" rx="18" fill="#7ddef1"/>
    <rect x="1202" y="184" width="104" height="48" rx="18" fill="#ec5aa1"/>
    <rect x="1330" y="184" width="34" height="130" rx="17" fill="#ffe100"/>
    <rect x="1080" y="260" width="236" height="30" rx="15" fill="#8be600" opacity=".72"/>
  </g>
  <g filter="url(#softShadow)">
    <rect x="714" y="470" width="610" height="210" rx="46" fill="url(#table)"/>
    <ellipse cx="1018" cy="681" rx="284" ry="48" fill="#00aeb5" opacity=".17"/>
    <rect x="782" y="438" width="464" height="70" rx="35" fill="#fff"/>
    <circle cx="846" cy="410" r="45" fill="#8be600"/>
    <circle cx="944" cy="405" r="34" fill="#ec5aa1"/>
    <circle cx="1038" cy="401" r="43" fill="#7ddef1"/>
    <circle cx="1148" cy="407" r="38" fill="#ffe100"/>
    <path d="M830 557c92-46 237-39 334 4 31 14 28 60-5 70-105 31-223 31-329 2-37-10-39-58 0-76Z" fill="#b8f000"/>
    <path d="M866 545c84-28 205-21 282 12" fill="none" stroke="#fff" stroke-width="12" stroke-linecap="round" opacity=".72"/>
  </g>
  <g filter="url(#softShadow)">
    <rect x="1210" y="574" width="170" height="166" rx="34" fill="#ffffff" opacity=".9"/>
    <path d="M1240 642c23-34 75-48 108-16 29 28 22 73-13 91-38 20-93-7-105-43-4-12 2-22 10-32Z" fill="#ec5aa1" opacity=".82"/>
    <circle cx="1274" cy="646" r="9" fill="#fff"/>
    <circle cx="1331" cy="673" r="12" fill="#ffe100"/>
  </g>
  <g opacity=".68">
    <path d="M580 192c55-29 120-8 139 42 19 52-20 112-77 120-55 8-110-31-116-83-4-34 19-63 54-79Z" fill="#7ddef1"/>
    <path d="M610 208c35-12 73-3 95 22" fill="none" stroke="#fff" stroke-width="11" stroke-linecap="round"/>
    <path d="M368 376c70-36 140-4 150 52 11 62-44 113-107 95-56-16-90-80-66-121 6-11 14-19 23-26Z" fill="#ffe100" opacity=".72"/>
  </g>
</svg>
