<svg xmlns="http://www.w3.org/2000/svg" viewBox="0 0 960 600" role="img" aria-labelledby="title desc">
  <title id="title">Декоративный творческий стол</title>
  <desc id="desc">Авторская SVG-иллюстрация стола с баночками, блестками и мягкими цветами.</desc>
  <defs>
    <linearGradient id="bg" x1="0" y1="0" x2="960" y2="600" gradientUnits="userSpaceOnUse">
      <stop stop-color="#d7f8ff"/>
      <stop offset=".58" stop-color="#fff7d4"/>
      <stop offset="1" stop-color="#ffd7ec"/>
    </linearGradient>
  </defs>
  <rect width="960" height="600" rx="28" fill="url(#bg)"/>
  <rect x="118" y="330" width="724" height="116" rx="38" fill="#fff" opacity=".88"/>
  <ellipse cx="480" cy="444" rx="340" ry="45" fill="#00aeb5" opacity=".14"/>
  <g>
    <rect x="216" y="208" width="128" height="136" rx="28" fill="#7ddef1"/>
    <rect x="238" y="176" width="84" height="46" rx="18" fill="#ffffff"/>
    <circle cx="280" cy="276" r="28" fill="#fff" opacity=".72"/>
    <rect x="416" y="180" width="128" height="164" rx="31" fill="#ec5aa1"/>
    <rect x="438" y="148" width="84" height="46" rx="18" fill="#ffffff"/>
    <circle cx="480" cy="264" r="32" fill="#fff" opacity=".72"/>
    <rect x="616" y="220" width="128" height="124" rx="28" fill="#8be600"/>
    <rect x="638" y="188" width="84" height="46" rx="18" fill="#ffffff"/>
    <circle cx="680" cy="284" r="24" fill="#fff" opacity=".72"/>
  </g>
  <path d="M298 398c94-45 246-41 352 4 28 12 25 54-6 64-97 32-227 31-326-2-36-12-54-49-20-66Z" fill="#ffe100"/>
  <path d="M343 390c74-22 184-18 262 7" fill="none" stroke="#fff" stroke-width="14" stroke-linecap="round" opacity=".65"/>
  <g fill="#ffffff" opacity=".85">
    <circle cx="150" cy="122" r="22"/>
    <circle cx="786" cy="118" r="18"/>
    <circle cx="842" cy="246" r="28"/>
    <circle cx="108" cy="262" r="16"/>
  </g>
</svg>
